<mxfile host="app.diagrams.net" agent="Mozilla/5.0 (Windows NT 10.0; Win64; x64) AppleWebKit/537.36 (KHTML, like Gecko) Chrome/138.0.0.0 Safari/537.36" version="28.1.2">
  <diagram name="Page-1" id="oXbudvVzBz7tinTJCSh1">
    <mxGraphModel dx="2563" dy="1128" grid="1" gridSize="10" guides="1" tooltips="1" connect="1" arrows="1" fold="1" page="1" pageScale="1" pageWidth="850" pageHeight="1100" math="0" shadow="0">
      <root>
        <mxCell id="0" />
        <mxCell id="1" parent="0" />
        <mxCell id="kh4HMHGvNC4jDDgap6VO-1" value="" style="swimlane;startSize=0;" vertex="1" parent="1">
          <mxGeometry x="300" y="100" width="910" height="610" as="geometry">
            <mxRectangle x="60" y="-620" width="120" height="70" as="alternateBounds" />
          </mxGeometry>
        </mxCell>
        <mxCell id="kh4HMHGvNC4jDDgap6VO-2" value="FIFO&lt;br&gt;8 x 8" style="rounded=1;whiteSpace=wrap;html=1;" vertex="1" parent="kh4HMHGvNC4jDDgap6VO-1">
          <mxGeometry x="301" y="382" width="70" height="110" as="geometry" />
        </mxCell>
        <mxCell id="kh4HMHGvNC4jDDgap6VO-3" value="" style="endArrow=classic;html=1;rounded=0;strokeWidth=2;" edge="1" parent="kh4HMHGvNC4jDDgap6VO-1">
          <mxGeometry width="50" height="50" relative="1" as="geometry">
            <mxPoint x="86" y="402" as="sourcePoint" />
            <mxPoint x="301" y="402" as="targetPoint" />
          </mxGeometry>
        </mxCell>
        <mxCell id="kh4HMHGvNC4jDDgap6VO-4" value="" style="endArrow=classic;html=1;rounded=0;" edge="1" parent="kh4HMHGvNC4jDDgap6VO-1">
          <mxGeometry width="50" height="50" relative="1" as="geometry">
            <mxPoint x="86" y="422" as="sourcePoint" />
            <mxPoint x="301" y="422" as="targetPoint" />
          </mxGeometry>
        </mxCell>
        <mxCell id="kh4HMHGvNC4jDDgap6VO-6" value="" style="endArrow=classic;html=1;rounded=0;entryX=0.001;entryY=0.711;entryDx=0;entryDy=0;entryPerimeter=0;" edge="1" parent="kh4HMHGvNC4jDDgap6VO-1">
          <mxGeometry width="50" height="50" relative="1" as="geometry">
            <mxPoint x="195.5" y="294" as="sourcePoint" />
            <mxPoint x="301.06999999999994" y="460.21000000000004" as="targetPoint" />
            <Array as="points">
              <mxPoint x="195.5" y="461" />
            </Array>
          </mxGeometry>
        </mxCell>
        <mxCell id="kh4HMHGvNC4jDDgap6VO-7" value="" style="endArrow=classic;html=1;rounded=0;" edge="1" parent="kh4HMHGvNC4jDDgap6VO-1">
          <mxGeometry width="50" height="50" relative="1" as="geometry">
            <mxPoint x="216" y="315" as="sourcePoint" />
            <mxPoint x="301" y="482" as="targetPoint" />
            <Array as="points">
              <mxPoint x="216" y="482" />
            </Array>
          </mxGeometry>
        </mxCell>
        <mxCell id="kh4HMHGvNC4jDDgap6VO-8" value="wr_data" style="text;html=1;align=center;verticalAlign=middle;resizable=0;points=[];autosize=1;strokeColor=none;fillColor=none;" vertex="1" parent="kh4HMHGvNC4jDDgap6VO-1">
          <mxGeometry x="216" y="378" width="70" height="30" as="geometry" />
        </mxCell>
        <mxCell id="kh4HMHGvNC4jDDgap6VO-9" value="wr_en" style="text;html=1;align=center;verticalAlign=middle;resizable=0;points=[];autosize=1;strokeColor=none;fillColor=none;" vertex="1" parent="kh4HMHGvNC4jDDgap6VO-1">
          <mxGeometry x="217" y="399" width="60" height="30" as="geometry" />
        </mxCell>
        <mxCell id="kh4HMHGvNC4jDDgap6VO-10" value="rd_en" style="text;html=1;align=center;verticalAlign=middle;resizable=0;points=[];autosize=1;strokeColor=none;fillColor=none;" vertex="1" parent="kh4HMHGvNC4jDDgap6VO-1">
          <mxGeometry x="221" y="419" width="50" height="30" as="geometry" />
        </mxCell>
        <mxCell id="kh4HMHGvNC4jDDgap6VO-11" value="clock" style="text;html=1;align=center;verticalAlign=middle;resizable=0;points=[];autosize=1;strokeColor=none;fillColor=none;" vertex="1" parent="kh4HMHGvNC4jDDgap6VO-1">
          <mxGeometry x="219" y="440" width="50" height="30" as="geometry" />
        </mxCell>
        <mxCell id="kh4HMHGvNC4jDDgap6VO-12" value="rst" style="text;html=1;align=center;verticalAlign=middle;resizable=0;points=[];autosize=1;strokeColor=none;fillColor=none;" vertex="1" parent="kh4HMHGvNC4jDDgap6VO-1">
          <mxGeometry x="224" y="461" width="40" height="30" as="geometry" />
        </mxCell>
        <mxCell id="kh4HMHGvNC4jDDgap6VO-13" value="" style="endArrow=classic;html=1;rounded=0;strokeWidth=2;entryX=-0.027;entryY=0.62;entryDx=0;entryDy=0;entryPerimeter=0;" edge="1" parent="kh4HMHGvNC4jDDgap6VO-1" target="kh4HMHGvNC4jDDgap6VO-19">
          <mxGeometry width="50" height="50" relative="1" as="geometry">
            <mxPoint x="371" y="401" as="sourcePoint" />
            <mxPoint x="451" y="401" as="targetPoint" />
            <Array as="points">
              <mxPoint x="496" y="401" />
              <mxPoint x="496" y="269" />
            </Array>
          </mxGeometry>
        </mxCell>
        <mxCell id="kh4HMHGvNC4jDDgap6VO-14" value="rd_data" style="text;html=1;align=center;verticalAlign=middle;resizable=0;points=[];autosize=1;strokeColor=none;fillColor=none;" vertex="1" parent="kh4HMHGvNC4jDDgap6VO-1">
          <mxGeometry x="364" y="375" width="60" height="30" as="geometry" />
        </mxCell>
        <mxCell id="kh4HMHGvNC4jDDgap6VO-15" value="" style="endArrow=classic;html=1;rounded=0;exitX=1;exitY=0.5;exitDx=0;exitDy=0;" edge="1" parent="kh4HMHGvNC4jDDgap6VO-1" source="kh4HMHGvNC4jDDgap6VO-2">
          <mxGeometry width="50" height="50" relative="1" as="geometry">
            <mxPoint x="371" y="441" as="sourcePoint" />
            <mxPoint x="816" y="437" as="targetPoint" />
          </mxGeometry>
        </mxCell>
        <mxCell id="kh4HMHGvNC4jDDgap6VO-16" value="" style="endArrow=classic;html=1;rounded=0;exitX=0.987;exitY=0.842;exitDx=0;exitDy=0;exitPerimeter=0;" edge="1" parent="kh4HMHGvNC4jDDgap6VO-1">
          <mxGeometry width="50" height="50" relative="1" as="geometry">
            <mxPoint x="371.0899999999999" y="474.6199999999999" as="sourcePoint" />
            <mxPoint x="276" y="189" as="targetPoint" />
            <Array as="points">
              <mxPoint x="397" y="475" />
              <mxPoint x="397" y="509" />
              <mxPoint x="167" y="509" />
              <mxPoint x="167" y="189" />
            </Array>
          </mxGeometry>
        </mxCell>
        <mxCell id="kh4HMHGvNC4jDDgap6VO-17" value="full" style="text;html=1;align=center;verticalAlign=middle;resizable=0;points=[];autosize=1;strokeColor=none;fillColor=none;" vertex="1" parent="kh4HMHGvNC4jDDgap6VO-1">
          <mxGeometry x="371" y="413" width="40" height="30" as="geometry" />
        </mxCell>
        <mxCell id="kh4HMHGvNC4jDDgap6VO-18" value="empty" style="text;html=1;align=center;verticalAlign=middle;resizable=0;points=[];autosize=1;strokeColor=none;fillColor=none;" vertex="1" parent="kh4HMHGvNC4jDDgap6VO-1">
          <mxGeometry x="361" y="449" width="60" height="30" as="geometry" />
        </mxCell>
        <mxCell id="kh4HMHGvNC4jDDgap6VO-19" value="&lt;font style=&quot;font-size: 15px;&quot;&gt;Datapath&lt;/font&gt;" style="rounded=1;whiteSpace=wrap;html=1;" vertex="1" parent="kh4HMHGvNC4jDDgap6VO-1">
          <mxGeometry x="576" y="145" width="110" height="200" as="geometry" />
        </mxCell>
        <mxCell id="kh4HMHGvNC4jDDgap6VO-20" value="&lt;font style=&quot;font-size: 15px;&quot;&gt;Controller&lt;/font&gt;" style="ellipse;whiteSpace=wrap;html=1;" vertex="1" parent="kh4HMHGvNC4jDDgap6VO-1">
          <mxGeometry x="286" y="125" width="120" height="160" as="geometry" />
        </mxCell>
        <mxCell id="kh4HMHGvNC4jDDgap6VO-21" value="" style="endArrow=classic;html=1;rounded=0;" edge="1" parent="kh4HMHGvNC4jDDgap6VO-1">
          <mxGeometry width="50" height="50" relative="1" as="geometry">
            <mxPoint x="86" y="215" as="sourcePoint" />
            <mxPoint x="286" y="215" as="targetPoint" />
          </mxGeometry>
        </mxCell>
        <mxCell id="kh4HMHGvNC4jDDgap6VO-22" value="" style="endArrow=classic;html=1;rounded=0;" edge="1" parent="kh4HMHGvNC4jDDgap6VO-1">
          <mxGeometry width="50" height="50" relative="1" as="geometry">
            <mxPoint x="86" y="245" as="sourcePoint" />
            <mxPoint x="295" y="245" as="targetPoint" />
          </mxGeometry>
        </mxCell>
        <mxCell id="kh4HMHGvNC4jDDgap6VO-23" value="" style="endArrow=classic;html=1;rounded=0;entryX=0;entryY=0.25;entryDx=0;entryDy=0;" edge="1" parent="kh4HMHGvNC4jDDgap6VO-1" target="kh4HMHGvNC4jDDgap6VO-19">
          <mxGeometry width="50" height="50" relative="1" as="geometry">
            <mxPoint x="406" y="195" as="sourcePoint" />
            <mxPoint x="467" y="197" as="targetPoint" />
          </mxGeometry>
        </mxCell>
        <mxCell id="kh4HMHGvNC4jDDgap6VO-24" value="" style="endArrow=classic;html=1;rounded=0;entryX=0.018;entryY=0.38;entryDx=0;entryDy=0;entryPerimeter=0;" edge="1" parent="kh4HMHGvNC4jDDgap6VO-1">
          <mxGeometry width="50" height="50" relative="1" as="geometry">
            <mxPoint x="404" y="221" as="sourcePoint" />
            <mxPoint x="575.98" y="220.9999999999999" as="targetPoint" />
          </mxGeometry>
        </mxCell>
        <mxCell id="kh4HMHGvNC4jDDgap6VO-25" value="" style="endArrow=classic;html=1;rounded=0;" edge="1" parent="kh4HMHGvNC4jDDgap6VO-1">
          <mxGeometry width="50" height="50" relative="1" as="geometry">
            <mxPoint x="216" y="245" as="sourcePoint" />
            <mxPoint x="576" y="315" as="targetPoint" />
            <Array as="points">
              <mxPoint x="216" y="315" />
            </Array>
          </mxGeometry>
        </mxCell>
        <mxCell id="kh4HMHGvNC4jDDgap6VO-26" value="" style="endArrow=classic;html=1;rounded=0;" edge="1" parent="kh4HMHGvNC4jDDgap6VO-1">
          <mxGeometry width="50" height="50" relative="1" as="geometry">
            <mxPoint x="196" y="215" as="sourcePoint" />
            <mxPoint x="576" y="295" as="targetPoint" />
            <Array as="points">
              <mxPoint x="196" y="295" />
            </Array>
          </mxGeometry>
        </mxCell>
        <mxCell id="kh4HMHGvNC4jDDgap6VO-29" value="" style="endArrow=classic;html=1;rounded=0;entryX=0.069;entryY=0.234;entryDx=0;entryDy=0;entryPerimeter=0;" edge="1" parent="kh4HMHGvNC4jDDgap6VO-1" target="kh4HMHGvNC4jDDgap6VO-20">
          <mxGeometry width="50" height="50" relative="1" as="geometry">
            <mxPoint x="686" y="195" as="sourcePoint" />
            <mxPoint x="236" y="155" as="targetPoint" />
            <Array as="points">
              <mxPoint x="736" y="195" />
              <mxPoint x="736" y="115" />
              <mxPoint x="256" y="115" />
              <mxPoint x="256" y="162" />
            </Array>
          </mxGeometry>
        </mxCell>
        <mxCell id="kh4HMHGvNC4jDDgap6VO-30" value="" style="endArrow=classic;html=1;rounded=0;" edge="1" parent="kh4HMHGvNC4jDDgap6VO-1">
          <mxGeometry width="50" height="50" relative="1" as="geometry">
            <mxPoint x="686" y="295" as="sourcePoint" />
            <mxPoint x="816" y="295" as="targetPoint" />
          </mxGeometry>
        </mxCell>
        <mxCell id="kh4HMHGvNC4jDDgap6VO-31" value="clock" style="text;html=1;align=center;verticalAlign=middle;resizable=0;points=[];autosize=1;strokeColor=none;fillColor=none;" vertex="1" parent="kh4HMHGvNC4jDDgap6VO-1">
          <mxGeometry x="500" y="273" width="50" height="30" as="geometry" />
        </mxCell>
        <mxCell id="kh4HMHGvNC4jDDgap6VO-32" value="reset" style="text;html=1;align=center;verticalAlign=middle;resizable=0;points=[];autosize=1;strokeColor=none;fillColor=none;" vertex="1" parent="kh4HMHGvNC4jDDgap6VO-1">
          <mxGeometry x="500" y="294" width="50" height="30" as="geometry" />
        </mxCell>
        <mxCell id="kh4HMHGvNC4jDDgap6VO-34" value="tx_start" style="text;html=1;align=center;verticalAlign=middle;resizable=0;points=[];autosize=1;strokeColor=none;fillColor=none;" vertex="1" parent="kh4HMHGvNC4jDDgap6VO-1">
          <mxGeometry x="406" y="170" width="60" height="30" as="geometry" />
        </mxCell>
        <mxCell id="kh4HMHGvNC4jDDgap6VO-35" value="load" style="text;html=1;align=center;verticalAlign=middle;resizable=0;points=[];autosize=1;strokeColor=none;fillColor=none;" vertex="1" parent="kh4HMHGvNC4jDDgap6VO-1">
          <mxGeometry x="412" y="195" width="50" height="30" as="geometry" />
        </mxCell>
        <mxCell id="kh4HMHGvNC4jDDgap6VO-36" value="tx_done" style="text;html=1;align=center;verticalAlign=middle;resizable=0;points=[];autosize=1;strokeColor=none;fillColor=none;" vertex="1" parent="kh4HMHGvNC4jDDgap6VO-1">
          <mxGeometry x="396" y="221" width="70" height="30" as="geometry" />
        </mxCell>
        <mxCell id="kh4HMHGvNC4jDDgap6VO-37" value="transmit_done" style="text;html=1;align=center;verticalAlign=middle;resizable=0;points=[];autosize=1;strokeColor=none;fillColor=none;" vertex="1" parent="kh4HMHGvNC4jDDgap6VO-1">
          <mxGeometry x="686" y="190" width="100" height="30" as="geometry" />
        </mxCell>
        <mxCell id="kh4HMHGvNC4jDDgap6VO-38" value="tx" style="text;html=1;align=center;verticalAlign=middle;resizable=0;points=[];autosize=1;strokeColor=none;fillColor=none;" vertex="1" parent="kh4HMHGvNC4jDDgap6VO-1">
          <mxGeometry x="781" y="267" width="30" height="30" as="geometry" />
        </mxCell>
        <mxCell id="kh4HMHGvNC4jDDgap6VO-39" value="clock" style="text;html=1;align=center;verticalAlign=middle;resizable=0;points=[];autosize=1;strokeColor=none;fillColor=none;" vertex="1" parent="kh4HMHGvNC4jDDgap6VO-1">
          <mxGeometry x="216" y="191" width="50" height="30" as="geometry" />
        </mxCell>
        <mxCell id="kh4HMHGvNC4jDDgap6VO-40" value="reset" style="text;html=1;align=center;verticalAlign=middle;resizable=0;points=[];autosize=1;strokeColor=none;fillColor=none;" vertex="1" parent="kh4HMHGvNC4jDDgap6VO-1">
          <mxGeometry x="219" y="220" width="50" height="30" as="geometry" />
        </mxCell>
        <mxCell id="kh4HMHGvNC4jDDgap6VO-41" value="empty" style="text;html=1;align=center;verticalAlign=middle;resizable=0;points=[];autosize=1;strokeColor=none;fillColor=none;" vertex="1" parent="kh4HMHGvNC4jDDgap6VO-1">
          <mxGeometry x="210" y="165" width="60" height="30" as="geometry" />
        </mxCell>
        <mxCell id="kh4HMHGvNC4jDDgap6VO-42" value="" style="endArrow=classic;html=1;rounded=0;" edge="1" parent="kh4HMHGvNC4jDDgap6VO-1">
          <mxGeometry width="50" height="50" relative="1" as="geometry">
            <mxPoint x="397" y="475" as="sourcePoint" />
            <mxPoint x="816" y="475" as="targetPoint" />
          </mxGeometry>
        </mxCell>
        <mxCell id="kh4HMHGvNC4jDDgap6VO-43" value="" style="ellipse;whiteSpace=wrap;html=1;aspect=fixed;" vertex="1" parent="kh4HMHGvNC4jDDgap6VO-1">
          <mxGeometry x="277" y="185" width="10" height="10" as="geometry" />
        </mxCell>
        <mxCell id="kh4HMHGvNC4jDDgap6VO-47" value="clk" style="text;html=1;align=center;verticalAlign=middle;resizable=0;points=[];autosize=1;strokeColor=none;fillColor=none;" vertex="1" parent="kh4HMHGvNC4jDDgap6VO-1">
          <mxGeometry x="76" y="190" width="40" height="30" as="geometry" />
        </mxCell>
        <mxCell id="kh4HMHGvNC4jDDgap6VO-48" value="rst" style="text;html=1;align=center;verticalAlign=middle;resizable=0;points=[];autosize=1;strokeColor=none;fillColor=none;" vertex="1" parent="kh4HMHGvNC4jDDgap6VO-1">
          <mxGeometry x="76" y="220" width="40" height="30" as="geometry" />
        </mxCell>
        <mxCell id="kh4HMHGvNC4jDDgap6VO-49" value="stop_bits" style="text;html=1;align=center;verticalAlign=middle;resizable=0;points=[];autosize=1;strokeColor=none;fillColor=none;" vertex="1" parent="kh4HMHGvNC4jDDgap6VO-1">
          <mxGeometry x="64" y="330" width="70" height="30" as="geometry" />
        </mxCell>
        <mxCell id="kh4HMHGvNC4jDDgap6VO-50" value="fifo_in" style="text;html=1;align=center;verticalAlign=middle;resizable=0;points=[];autosize=1;strokeColor=none;fillColor=none;" vertex="1" parent="kh4HMHGvNC4jDDgap6VO-1">
          <mxGeometry x="70" y="376" width="60" height="30" as="geometry" />
        </mxCell>
        <mxCell id="kh4HMHGvNC4jDDgap6VO-51" value="fifo_wr" style="text;html=1;align=center;verticalAlign=middle;resizable=0;points=[];autosize=1;strokeColor=none;fillColor=none;" vertex="1" parent="kh4HMHGvNC4jDDgap6VO-1">
          <mxGeometry x="71" y="397" width="60" height="30" as="geometry" />
        </mxCell>
        <mxCell id="kh4HMHGvNC4jDDgap6VO-99" value="&lt;span style=&quot;font-size: 15px;&quot;&gt;Baud_Rate&lt;/span&gt;" style="rounded=1;whiteSpace=wrap;html=1;" vertex="1" parent="kh4HMHGvNC4jDDgap6VO-1">
          <mxGeometry x="146" y="15" width="100" height="110" as="geometry" />
        </mxCell>
        <mxCell id="kh4HMHGvNC4jDDgap6VO-104" value="" style="edgeStyle=none;orthogonalLoop=1;jettySize=auto;html=1;rounded=0;exitX=0.992;exitY=0.778;exitDx=0;exitDy=0;exitPerimeter=0;" edge="1" parent="kh4HMHGvNC4jDDgap6VO-1" source="kh4HMHGvNC4jDDgap6VO-47">
          <mxGeometry width="100" relative="1" as="geometry">
            <mxPoint x="46" y="69.5" as="sourcePoint" />
            <mxPoint x="146" y="69.5" as="targetPoint" />
            <Array as="points">
              <mxPoint x="116" y="70" />
            </Array>
          </mxGeometry>
        </mxCell>
        <mxCell id="kh4HMHGvNC4jDDgap6VO-105" value="" style="edgeStyle=none;orthogonalLoop=1;jettySize=auto;html=1;rounded=0;exitX=0.992;exitY=0.778;exitDx=0;exitDy=0;exitPerimeter=0;" edge="1" parent="kh4HMHGvNC4jDDgap6VO-1">
          <mxGeometry width="100" relative="1" as="geometry">
            <mxPoint x="130" y="243.5" as="sourcePoint" />
            <mxPoint x="150" y="100" as="targetPoint" />
            <Array as="points">
              <mxPoint x="130" y="100.5" />
              <mxPoint x="140" y="100" />
            </Array>
          </mxGeometry>
        </mxCell>
        <mxCell id="kh4HMHGvNC4jDDgap6VO-110" value="rst" style="text;html=1;align=center;verticalAlign=middle;resizable=0;points=[];autosize=1;strokeColor=none;fillColor=none;" vertex="1" parent="kh4HMHGvNC4jDDgap6VO-1">
          <mxGeometry x="116" y="78" width="40" height="30" as="geometry" />
        </mxCell>
        <mxCell id="kh4HMHGvNC4jDDgap6VO-112" value="" style="endArrow=classic;html=1;rounded=0;exitX=1;exitY=0.5;exitDx=0;exitDy=0;entryX=-0.003;entryY=0.135;entryDx=0;entryDy=0;entryPerimeter=0;" edge="1" parent="kh4HMHGvNC4jDDgap6VO-1" target="kh4HMHGvNC4jDDgap6VO-19">
          <mxGeometry width="50" height="50" relative="1" as="geometry">
            <mxPoint x="246" y="69.5" as="sourcePoint" />
            <mxPoint x="510" y="70" as="targetPoint" />
            <Array as="points">
              <mxPoint x="490" y="70" />
              <mxPoint x="490" y="173" />
            </Array>
          </mxGeometry>
        </mxCell>
        <mxCell id="kh4HMHGvNC4jDDgap6VO-115" value="" style="endArrow=classic;html=1;rounded=0;exitX=1;exitY=0.5;exitDx=0;exitDy=0;" edge="1" parent="kh4HMHGvNC4jDDgap6VO-1">
          <mxGeometry width="50" height="50" relative="1" as="geometry">
            <mxPoint x="371" y="413.5" as="sourcePoint" />
            <mxPoint x="816" y="413.5" as="targetPoint" />
          </mxGeometry>
        </mxCell>
        <mxCell id="kh4HMHGvNC4jDDgap6VO-116" value="" style="endArrow=classic;html=1;rounded=0;exitX=1;exitY=0.5;exitDx=0;exitDy=0;" edge="1" parent="kh4HMHGvNC4jDDgap6VO-1">
          <mxGeometry width="50" height="50" relative="1" as="geometry">
            <mxPoint x="371" y="454.5" as="sourcePoint" />
            <mxPoint x="816" y="454.5" as="targetPoint" />
          </mxGeometry>
        </mxCell>
        <mxCell id="kh4HMHGvNC4jDDgap6VO-120" value="tick_tx" style="text;html=1;align=center;verticalAlign=middle;resizable=0;points=[];autosize=1;strokeColor=none;fillColor=none;" vertex="1" parent="kh4HMHGvNC4jDDgap6VO-1">
          <mxGeometry x="260" y="125" width="60" height="30" as="geometry" />
        </mxCell>
        <mxCell id="kh4HMHGvNC4jDDgap6VO-122" value="" style="endArrow=classic;html=1;rounded=0;entryX=0.336;entryY=0.968;entryDx=0;entryDy=0;entryPerimeter=0;exitX=0.086;exitY=0.889;exitDx=0;exitDy=0;exitPerimeter=0;" edge="1" parent="kh4HMHGvNC4jDDgap6VO-1" source="kh4HMHGvNC4jDDgap6VO-125" target="kh4HMHGvNC4jDDgap6VO-20">
          <mxGeometry width="50" height="50" relative="1" as="geometry">
            <mxPoint x="690" y="270" as="sourcePoint" />
            <mxPoint x="298" y="237" as="targetPoint" />
            <Array as="points">
              <mxPoint x="740" y="270" />
              <mxPoint x="740" y="370" />
              <mxPoint x="230" y="370" />
              <mxPoint x="230" y="280" />
              <mxPoint x="270" y="280" />
              <mxPoint x="290" y="280" />
            </Array>
          </mxGeometry>
        </mxCell>
        <mxCell id="kh4HMHGvNC4jDDgap6VO-125" value="load_done" style="text;html=1;align=center;verticalAlign=middle;resizable=0;points=[];autosize=1;strokeColor=none;fillColor=none;" vertex="1" parent="kh4HMHGvNC4jDDgap6VO-1">
          <mxGeometry x="680" y="243" width="80" height="30" as="geometry" />
        </mxCell>
        <mxCell id="kh4HMHGvNC4jDDgap6VO-126" value="" style="endArrow=classic;html=1;rounded=0;entryX=0.018;entryY=0.38;entryDx=0;entryDy=0;entryPerimeter=0;exitX=0.922;exitY=0.741;exitDx=0;exitDy=0;exitPerimeter=0;" edge="1" parent="kh4HMHGvNC4jDDgap6VO-1" source="kh4HMHGvNC4jDDgap6VO-20">
          <mxGeometry width="50" height="50" relative="1" as="geometry">
            <mxPoint x="404.02" y="243.0000000000001" as="sourcePoint" />
            <mxPoint x="576" y="243" as="targetPoint" />
          </mxGeometry>
        </mxCell>
        <mxCell id="kh4HMHGvNC4jDDgap6VO-98" value="&lt;b&gt;UART&lt;br&gt;Transmitter&lt;/b&gt;" style="text;html=1;align=center;verticalAlign=middle;resizable=0;points=[];autosize=1;strokeColor=none;fillColor=none;" vertex="1" parent="kh4HMHGvNC4jDDgap6VO-1">
          <mxGeometry x="20" y="530" width="90" height="40" as="geometry" />
        </mxCell>
        <mxCell id="kh4HMHGvNC4jDDgap6VO-53" value="" style="swimlane;startSize=0;" vertex="1" parent="1">
          <mxGeometry x="580" y="740" width="370" height="300" as="geometry">
            <mxRectangle x="58" width="65" height="90" as="alternateBounds" />
          </mxGeometry>
        </mxCell>
        <mxCell id="kh4HMHGvNC4jDDgap6VO-54" value="&lt;b&gt;&lt;sub&gt;IDLE&lt;/sub&gt;&lt;/b&gt;" style="ellipse;whiteSpace=wrap;html=1;aspect=fixed;" vertex="1" parent="kh4HMHGvNC4jDDgap6VO-53">
          <mxGeometry x="138" y="60" width="60" height="60" as="geometry" />
        </mxCell>
        <mxCell id="kh4HMHGvNC4jDDgap6VO-55" value="&lt;b&gt;&lt;sub&gt;LOAD&lt;/sub&gt;&lt;/b&gt;" style="ellipse;whiteSpace=wrap;html=1;aspect=fixed;" vertex="1" parent="kh4HMHGvNC4jDDgap6VO-53">
          <mxGeometry x="218" y="180" width="60" height="60" as="geometry" />
        </mxCell>
        <mxCell id="kh4HMHGvNC4jDDgap6VO-56" value="&lt;b&gt;&lt;sub&gt;TRANSMIT&lt;/sub&gt;&lt;/b&gt;" style="ellipse;whiteSpace=wrap;html=1;aspect=fixed;" vertex="1" parent="kh4HMHGvNC4jDDgap6VO-53">
          <mxGeometry x="60" y="180" width="60" height="60" as="geometry" />
        </mxCell>
        <mxCell id="kh4HMHGvNC4jDDgap6VO-57" value="" style="endArrow=classic;html=1;rounded=0;entryX=0.086;entryY=0.186;entryDx=0;entryDy=0;entryPerimeter=0;flowAnimation=0;" edge="1" parent="kh4HMHGvNC4jDDgap6VO-53" target="kh4HMHGvNC4jDDgap6VO-55">
          <mxGeometry width="50" height="50" relative="1" as="geometry">
            <mxPoint x="190" y="110" as="sourcePoint" />
            <mxPoint x="240" y="60" as="targetPoint" />
          </mxGeometry>
        </mxCell>
        <mxCell id="kh4HMHGvNC4jDDgap6VO-58" value="" style="endArrow=classic;html=1;rounded=0;entryX=0;entryY=1;entryDx=0;entryDy=0;exitX=1;exitY=0;exitDx=0;exitDy=0;flowAnimation=0;" edge="1" parent="kh4HMHGvNC4jDDgap6VO-53" source="kh4HMHGvNC4jDDgap6VO-56" target="kh4HMHGvNC4jDDgap6VO-54">
          <mxGeometry width="50" height="50" relative="1" as="geometry">
            <mxPoint x="90" y="160" as="sourcePoint" />
            <mxPoint x="140" y="110" as="targetPoint" />
          </mxGeometry>
        </mxCell>
        <mxCell id="kh4HMHGvNC4jDDgap6VO-59" value="" style="endArrow=classic;html=1;rounded=0;entryX=0.995;entryY=0.586;entryDx=0;entryDy=0;entryPerimeter=0;exitX=-0.019;exitY=0.586;exitDx=0;exitDy=0;exitPerimeter=0;flowAnimation=0;" edge="1" parent="kh4HMHGvNC4jDDgap6VO-53" source="kh4HMHGvNC4jDDgap6VO-55" target="kh4HMHGvNC4jDDgap6VO-56">
          <mxGeometry width="50" height="50" relative="1" as="geometry">
            <mxPoint x="138" y="235" as="sourcePoint" />
            <mxPoint x="188" y="185" as="targetPoint" />
          </mxGeometry>
        </mxCell>
        <mxCell id="kh4HMHGvNC4jDDgap6VO-60" value="" style="curved=1;endArrow=classic;html=1;rounded=0;flowAnimation=0;" edge="1" parent="kh4HMHGvNC4jDDgap6VO-53">
          <mxGeometry width="50" height="50" relative="1" as="geometry">
            <mxPoint x="168" y="60" as="sourcePoint" />
            <mxPoint x="170" y="60" as="targetPoint" />
            <Array as="points">
              <mxPoint x="218" y="60" />
              <mxPoint x="168" y="10" />
            </Array>
          </mxGeometry>
        </mxCell>
        <mxCell id="kh4HMHGvNC4jDDgap6VO-61" value="" style="curved=1;endArrow=classic;html=1;rounded=0;flowAnimation=0;exitX=0;exitY=0.5;exitDx=0;exitDy=0;" edge="1" parent="kh4HMHGvNC4jDDgap6VO-53" source="kh4HMHGvNC4jDDgap6VO-56">
          <mxGeometry width="50" height="50" relative="1" as="geometry">
            <mxPoint x="58" y="212" as="sourcePoint" />
            <mxPoint x="58" y="210" as="targetPoint" />
            <Array as="points">
              <mxPoint x="8" y="212" />
              <mxPoint x="58" y="162" />
            </Array>
          </mxGeometry>
        </mxCell>
        <mxCell id="kh4HMHGvNC4jDDgap6VO-62" value="&lt;sub&gt;&lt;font style=&quot;font-size: 7px;&quot;&gt;tx_start = 1&lt;/font&gt;&lt;/sub&gt;" style="text;html=1;align=center;verticalAlign=middle;resizable=0;points=[];autosize=1;strokeColor=none;fillColor=none;" vertex="1" parent="kh4HMHGvNC4jDDgap6VO-53">
          <mxGeometry x="137" y="110" width="60" height="30" as="geometry" />
        </mxCell>
        <mxCell id="kh4HMHGvNC4jDDgap6VO-63" value="&lt;sub&gt;&lt;font style=&quot;font-size: 7px;&quot;&gt;tx_done = 0&lt;/font&gt;&lt;/sub&gt;" style="text;html=1;align=center;verticalAlign=middle;resizable=0;points=[];autosize=1;strokeColor=none;fillColor=none;" vertex="1" parent="kh4HMHGvNC4jDDgap6VO-53">
          <mxGeometry x="138" y="120" width="60" height="30" as="geometry" />
        </mxCell>
        <mxCell id="kh4HMHGvNC4jDDgap6VO-64" value="&lt;font style=&quot;font-size: 7px;&quot;&gt;load = 0&lt;/font&gt;" style="text;html=1;align=center;verticalAlign=middle;resizable=0;points=[];autosize=1;strokeColor=none;fillColor=none;" vertex="1" parent="kh4HMHGvNC4jDDgap6VO-53">
          <mxGeometry x="190" y="5.5" width="50" height="30" as="geometry" />
        </mxCell>
        <mxCell id="kh4HMHGvNC4jDDgap6VO-65" value="&lt;font style=&quot;font-size: 7px;&quot;&gt;rd_en = 0&lt;/font&gt;" style="text;html=1;align=center;verticalAlign=middle;resizable=0;points=[];autosize=1;strokeColor=none;fillColor=none;" vertex="1" parent="kh4HMHGvNC4jDDgap6VO-53">
          <mxGeometry x="191" y="14.5" width="50" height="30" as="geometry" />
        </mxCell>
        <mxCell id="kh4HMHGvNC4jDDgap6VO-66" value="&lt;font style=&quot;font-size: 7px;&quot;&gt;load = 1&lt;/font&gt;" style="text;html=1;align=center;verticalAlign=middle;resizable=0;points=[];autosize=1;strokeColor=none;fillColor=none;" vertex="1" parent="kh4HMHGvNC4jDDgap6VO-53">
          <mxGeometry x="197" y="128" width="50" height="30" as="geometry" />
        </mxCell>
        <mxCell id="kh4HMHGvNC4jDDgap6VO-67" value="&lt;font style=&quot;font-size: 7px;&quot;&gt;tx_done = 1&lt;/font&gt;" style="text;html=1;align=center;verticalAlign=middle;resizable=0;points=[];autosize=1;strokeColor=none;fillColor=none;" vertex="1" parent="kh4HMHGvNC4jDDgap6VO-53">
          <mxGeometry x="77" y="128" width="60" height="30" as="geometry" />
        </mxCell>
        <mxCell id="kh4HMHGvNC4jDDgap6VO-68" value="&lt;sub&gt;&lt;font style=&quot;font-size: 7px;&quot;&gt;tx_done = 0&lt;/font&gt;&lt;/sub&gt;" style="text;html=1;align=center;verticalAlign=middle;resizable=0;points=[];autosize=1;strokeColor=none;fillColor=none;" vertex="1" parent="kh4HMHGvNC4jDDgap6VO-53">
          <mxGeometry x="220" y="240" width="60" height="30" as="geometry" />
        </mxCell>
        <mxCell id="kh4HMHGvNC4jDDgap6VO-69" value="&lt;sub&gt;&lt;font style=&quot;font-size: 7px;&quot;&gt;tx_start = 0&lt;/font&gt;&lt;/sub&gt;" style="text;html=1;align=center;verticalAlign=middle;resizable=0;points=[];autosize=1;strokeColor=none;fillColor=none;" vertex="1" parent="kh4HMHGvNC4jDDgap6VO-53">
          <mxGeometry x="220" y="230" width="60" height="30" as="geometry" />
        </mxCell>
        <mxCell id="kh4HMHGvNC4jDDgap6VO-71" value="&lt;sub&gt;&lt;font style=&quot;font-size: 7px;&quot;&gt;tx_start = 1&lt;/font&gt;&lt;/sub&gt;" style="text;html=1;align=center;verticalAlign=middle;resizable=0;points=[];autosize=1;strokeColor=none;fillColor=none;" vertex="1" parent="kh4HMHGvNC4jDDgap6VO-53">
          <mxGeometry x="55" y="230" width="60" height="30" as="geometry" />
        </mxCell>
        <mxCell id="kh4HMHGvNC4jDDgap6VO-72" value="&lt;font style=&quot;font-size: 7px;&quot;&gt;tx_done = 0&lt;/font&gt;" style="text;html=1;align=center;verticalAlign=middle;resizable=0;points=[];autosize=1;strokeColor=none;fillColor=none;" vertex="1" parent="kh4HMHGvNC4jDDgap6VO-53">
          <mxGeometry x="-2" y="202" width="60" height="30" as="geometry" />
        </mxCell>
        <mxCell id="kh4HMHGvNC4jDDgap6VO-130" value="&lt;sub&gt;&lt;font style=&quot;font-size: 7px;&quot;&gt;rd_en = ~load_done&lt;/font&gt;&lt;/sub&gt;" style="text;html=1;align=center;verticalAlign=middle;resizable=0;points=[];autosize=1;strokeColor=none;fillColor=none;" vertex="1" parent="kh4HMHGvNC4jDDgap6VO-53">
          <mxGeometry x="205" y="249" width="90" height="30" as="geometry" />
        </mxCell>
        <mxCell id="kh4HMHGvNC4jDDgap6VO-131" value="&lt;font style=&quot;font-size: 7px;&quot;&gt;load = 1&lt;/font&gt;" style="text;html=1;align=center;verticalAlign=middle;resizable=0;points=[];autosize=1;strokeColor=none;fillColor=none;" vertex="1" parent="kh4HMHGvNC4jDDgap6VO-53">
          <mxGeometry x="60" y="240" width="50" height="30" as="geometry" />
        </mxCell>
        <mxCell id="kh4HMHGvNC4jDDgap6VO-132" value="&lt;font style=&quot;font-size: 7px;&quot;&gt;rd_en = 0&lt;/font&gt;" style="text;html=1;align=center;verticalAlign=middle;resizable=0;points=[];autosize=1;strokeColor=none;fillColor=none;" vertex="1" parent="kh4HMHGvNC4jDDgap6VO-53">
          <mxGeometry x="60" y="249" width="50" height="30" as="geometry" />
        </mxCell>
        <mxCell id="kh4HMHGvNC4jDDgap6VO-73" value="&lt;font&gt;Controller&lt;/font&gt;" style="text;html=1;align=center;verticalAlign=middle;resizable=0;points=[];autosize=1;strokeColor=none;fillColor=none;" vertex="1" parent="kh4HMHGvNC4jDDgap6VO-53">
          <mxGeometry x="10" y="14.5" width="80" height="30" as="geometry" />
        </mxCell>
        <mxCell id="kh4HMHGvNC4jDDgap6VO-109" value="clk" style="text;html=1;align=center;verticalAlign=middle;resizable=0;points=[];autosize=1;strokeColor=none;fillColor=none;" vertex="1" parent="1">
          <mxGeometry x="400" y="148" width="40" height="30" as="geometry" />
        </mxCell>
        <mxCell id="kh4HMHGvNC4jDDgap6VO-114" value="tick_tx" style="text;html=1;align=center;verticalAlign=middle;resizable=0;points=[];autosize=1;strokeColor=none;fillColor=none;" vertex="1" parent="1">
          <mxGeometry x="800" y="248" width="60" height="30" as="geometry" />
        </mxCell>
        <mxCell id="kh4HMHGvNC4jDDgap6VO-117" value="Almost Full" style="text;html=1;align=center;verticalAlign=middle;resizable=0;points=[];autosize=1;strokeColor=none;fillColor=none;" vertex="1" parent="1">
          <mxGeometry x="1010" y="488" width="80" height="30" as="geometry" />
        </mxCell>
        <mxCell id="kh4HMHGvNC4jDDgap6VO-118" value="Almost Empty" style="text;html=1;align=center;verticalAlign=middle;resizable=0;points=[];autosize=1;strokeColor=none;fillColor=none;" vertex="1" parent="1">
          <mxGeometry x="990" y="538" width="100" height="30" as="geometry" />
        </mxCell>
        <mxCell id="kh4HMHGvNC4jDDgap6VO-119" value="" style="edgeStyle=none;orthogonalLoop=1;jettySize=auto;html=1;rounded=0;entryX=0;entryY=0;entryDx=0;entryDy=0;" edge="1" parent="1" target="kh4HMHGvNC4jDDgap6VO-20">
          <mxGeometry width="100" relative="1" as="geometry">
            <mxPoint x="570" y="170" as="sourcePoint" />
            <mxPoint x="650" y="180" as="targetPoint" />
            <Array as="points">
              <mxPoint x="570" y="250" />
            </Array>
          </mxGeometry>
        </mxCell>
        <mxCell id="kh4HMHGvNC4jDDgap6VO-123" value="load_done" style="text;html=1;align=center;verticalAlign=middle;resizable=0;points=[];autosize=1;strokeColor=none;fillColor=none;" vertex="1" parent="1">
          <mxGeometry x="520" y="358" width="80" height="30" as="geometry" />
        </mxCell>
        <mxCell id="kh4HMHGvNC4jDDgap6VO-127" value="" style="edgeStyle=none;orthogonalLoop=1;jettySize=auto;html=1;rounded=0;" edge="1" parent="1">
          <mxGeometry width="100" relative="1" as="geometry">
            <mxPoint x="680" y="370" as="sourcePoint" />
            <mxPoint x="600" y="540" as="targetPoint" />
            <Array as="points">
              <mxPoint x="680" y="450" />
              <mxPoint x="440" y="450" />
              <mxPoint x="440" y="540" />
            </Array>
          </mxGeometry>
        </mxCell>
        <mxCell id="kh4HMHGvNC4jDDgap6VO-128" value="data_in" style="text;html=1;align=center;verticalAlign=middle;resizable=0;points=[];autosize=1;strokeColor=none;fillColor=none;" vertex="1" parent="1">
          <mxGeometry x="780" y="348" width="60" height="30" as="geometry" />
        </mxCell>
      </root>
    </mxGraphModel>
  </diagram>
</mxfile>
